<?xml version="1.0" encoding="utf-8"?>
<!-- Generator: Adobe Illustrator 24.1.1, SVG Export Plug-In . SVG Version: 6.00 Build 0)  -->
<svg version="1.1" id="Layer_1" xmlns="http://www.w3.org/2000/svg" xmlns:xlink="http://www.w3.org/1999/xlink" x="0px" y="0px"
	 viewBox="0 0 612 864" style="enable-background:new 0 0 612 864;" xml:space="preserve">
<style type="text/css">
	.st0{fill:#05344C;}
	.st1{fill:#E8F4F5;}
</style>
<g>
	<g>
		<rect x="0" class="st0" width="612" height="864"/>
	</g>
	<path class="st1" d="M612,0v864H362.7l-39.37-39.64c-6.4-6.44-10-15.16-10-24.27V308.54c0-44.64,17.62-87.45,49-119.01L550.64,0
		H612z"/>
</g>
<path class="st1" d="M302.57,137.56c-27.72,27.91-64.59,43.29-103.82,43.29H0v20.57h198.75c44.36,0,86.91-17.73,118.27-49.31
	L468.18,0h-28.91L302.57,137.56z"/>
<path class="st1" d="M317.63,864H0v-27.11h281.94c5.6,0,10.98,2.24,14.94,6.23L317.63,864z"/>
</svg>
